# xmcd CD database file generated by OrangeCD 5.2
#
# Track frame offsets:
#	150
#	12612
#	27100
#	40890
#	53142
#	67942
#	86212
#	99097
#	115575
#	127380
#	148550
#	168320
#	186930
#	199102
#
# Disc length: 2864 seconds
#
# Revision: 2
# Processed by: cddbd v1.5.1PL0 Copyright (c) Steve Scherf et al.
# Submitted via: OrangeCD 5.2
#
DISCID=bf0b2e0e
DTITLE=Anne-Marie Kvien - Livsglede
DYEAR=1998
DGENRE=Country
TTITLE0=Takk for liv og kjærlighet
TTITLE1=Sommerbrevet
TTITLE2=Så lenge solen gir oss lys
TTITLE3=Livsglede
TTITLE4=Fredriks sommerkveld
TTITLE5=Fredsdrømmen
TTITLE6=Hvorfor stride
TTITLE7=Se våren kommer
TTITLE8=Lille vakre Anna
TTITLE9=Sangen til bygda
TTITLE10=Glem ikke tiden vi var sammen
TTITLE11=Hver dag er en gave
TTITLE12=En sang om et fjell
TTITLE13=Jeg vil gi deg denne sang
EXTD=
EXTT0=
EXTT1=
EXTT2=
EXTT3=
EXTT4=
EXTT5=
EXTT6=
EXTT7=
EXTT8=
EXTT9=
EXTT10=
EXTT11=
EXTT12=
EXTT13=
PLAYORDER=
